<svg width="347" height="80" viewBox="0 0 347 80" fill="none" xmlns="http://www.w3.org/2000/svg">
<g clip-path="url(#clip0)">
<path d="M345.86 32.89C346.205 33.1408 346.488 33.4681 346.686 33.8463C346.883 34.2245 346.991 34.6433 347 35.07C347.035 35.5288 346.976 35.9898 346.826 36.4249C346.677 36.86 346.44 37.2599 346.13 37.6C345.858 37.8708 345.535 38.0847 345.18 38.2289C344.824 38.3732 344.443 38.4449 344.06 38.44C343.427 38.423 342.803 38.2943 342.215 38.06C342.105 38.025 341.86 37.95 341.48 37.845C341.081 37.7326 340.669 37.677 340.255 37.68C339.269 37.6821 338.308 37.9857 337.5 38.55C336.556 39.2173 335.812 40.1303 335.35 41.19C334.754 42.5135 334.464 43.9541 334.5 45.405V58.3C334.513 58.7362 334.438 59.1705 334.279 59.5769C334.12 59.9833 333.88 60.3534 333.575 60.665C332.951 61.2767 332.111 61.6193 331.237 61.6193C330.363 61.6193 329.524 61.2767 328.9 60.665C328.599 60.3514 328.364 59.9803 328.209 59.574C328.055 59.1677 327.984 58.7344 328 58.3V35.83C327.987 35.3938 328.062 34.9595 328.221 34.5531C328.38 34.1467 328.619 33.7766 328.925 33.465C329.549 32.8533 330.388 32.5108 331.262 32.5108C332.136 32.5108 332.976 32.8533 333.6 33.465C333.901 33.7787 334.136 34.1497 334.29 34.556C334.445 34.9623 334.516 35.3956 334.5 35.83V36.535C335.322 35.0625 336.575 33.8763 338.09 33.135C339.642 32.3578 341.354 31.957 343.09 31.965C344.094 31.9294 345.078 32.2579 345.86 32.89Z" fill="#78858B"/>
<path d="M321.5 48.5C320.862 49.04 320.05 49.3312 319.215 49.32H301.275C301.619 51.3096 302.688 53.1014 304.275 54.35C305.772 55.5454 307.634 56.1898 309.55 56.175C310.73 56.2151 311.91 56.0768 313.05 55.765C313.749 55.5578 314.421 55.2656 315.05 54.895C315.55 54.585 315.875 54.395 316.05 54.27C316.618 53.9594 317.252 53.788 317.9 53.77C318.265 53.7649 318.627 53.8346 318.964 53.9748C319.301 54.1149 319.606 54.3226 319.86 54.585C320.118 54.8308 320.323 55.1264 320.463 55.4539C320.603 55.7813 320.675 56.1338 320.675 56.49C320.675 57.47 320.175 58.3583 319.175 59.155C317.952 60.0991 316.57 60.8171 315.095 61.275C312.948 61.9963 310.678 62.2768 308.42 62.0998C306.162 61.9228 303.963 61.292 301.955 60.245C299.723 59.0377 297.882 57.218 296.65 55C295.402 52.6995 294.765 50.1171 294.8 47.5C294.738 44.6373 295.413 41.8068 296.76 39.28C297.956 37.0381 299.744 35.167 301.93 33.87C304.003 32.6358 306.372 31.9862 308.785 31.99C311.181 31.9921 313.528 32.6715 315.555 33.95C317.673 35.2486 319.425 37.0659 320.645 39.23C321.907 41.4114 322.565 43.8899 322.55 46.41C322.536 46.8135 322.435 47.2092 322.253 47.5699C322.072 47.9306 321.815 48.2479 321.5 48.5ZM301.315 43.875H315.57V43.5C315.488 42.729 315.248 41.9832 314.864 41.3095C314.48 40.6358 313.961 40.0486 313.34 39.585C312.057 38.5178 310.438 37.9387 308.77 37.95C304.57 37.95 302.09 39.9267 301.33 43.88L301.315 43.875Z" fill="#78858B"/>
<path d="M283.81 28.375C283.31 27.975 283.05 27.27 283.05 26.255V25.22C283.05 24.22 283.32 23.5 283.865 23.1C284.41 22.7 285.28 22.5 286.5 22.5C287.72 22.5 288.66 22.7 289.17 23.1C289.68 23.5 289.93 24.205 289.93 25.22V26.255C289.93 27.305 289.665 28.025 289.14 28.405C288.615 28.785 287.69 29 286.42 29C285.15 29 284.32 28.775 283.81 28.375ZM288.81 60.665C288.186 61.2767 287.346 61.6193 286.472 61.6193C285.598 61.6193 284.759 61.2767 284.135 60.665C283.829 60.3534 283.59 59.9833 283.431 59.5769C283.272 59.1705 283.197 58.7362 283.21 58.3V35.83C283.197 35.3938 283.272 34.9595 283.431 34.5531C283.59 34.1467 283.829 33.7766 284.135 33.465C284.759 32.8533 285.598 32.5107 286.472 32.5107C287.346 32.5107 288.186 32.8533 288.81 33.465C289.115 33.7766 289.355 34.1467 289.514 34.5531C289.673 34.9595 289.748 35.3938 289.735 35.83V58.3C289.748 58.7358 289.674 59.1699 289.516 59.5763C289.358 59.9827 289.119 60.353 288.815 60.665H288.81Z" fill="#78858B"/>
<path d="M277.855 32.89C278.195 33.1434 278.473 33.4718 278.667 33.8499C278.86 34.2279 278.964 34.6455 278.97 35.07C279.005 35.5288 278.946 35.9899 278.796 36.4249C278.646 36.86 278.409 37.2599 278.1 37.6C277.828 37.8709 277.505 38.0847 277.149 38.2289C276.794 38.3732 276.413 38.4449 276.03 38.44C275.396 38.4226 274.769 38.294 274.18 38.06C274.075 38.025 273.83 37.95 273.45 37.845C273.051 37.7329 272.639 37.6774 272.225 37.68C271.249 37.6882 270.299 37.9915 269.5 38.55C268.556 39.2174 267.812 40.1303 267.35 41.19C266.754 42.5135 266.463 43.9541 266.5 45.405V58.3C266.511 58.736 266.435 59.17 266.277 59.5762C266.118 59.9824 265.879 60.3526 265.575 60.665C264.95 61.277 264.109 61.6198 263.235 61.6198C262.36 61.6198 261.52 61.277 260.895 60.665C260.596 60.3502 260.363 59.9788 260.209 59.5727C260.055 59.1666 259.984 58.734 260 58.3V35.83C259.988 35.394 260.064 34.9601 260.223 34.5539C260.382 34.1477 260.62 33.7775 260.925 33.465C261.55 32.853 262.39 32.5103 263.265 32.5103C264.14 32.5103 264.98 32.853 265.605 33.465C265.904 33.7799 266.137 34.1513 266.29 34.5574C266.444 34.9635 266.515 35.3961 266.5 35.83V36.535C267.321 35.0615 268.574 33.875 270.09 33.135C271.641 32.3576 273.354 31.9568 275.09 31.965C276.093 31.9311 277.074 32.2594 277.855 32.89Z" fill="#78858B"/>
<path d="M254.245 32.8899C254.584 33.1441 254.862 33.4727 255.055 33.8505C255.248 34.2284 255.352 34.6455 255.36 35.0699C255.396 35.528 255.338 35.9886 255.191 36.4237C255.043 36.8587 254.808 37.259 254.5 37.5999C254.228 37.8705 253.905 38.0842 253.549 38.2284C253.194 38.3726 252.813 38.4445 252.43 38.4399C251.795 38.4229 251.169 38.2943 250.58 38.0599C250.47 38.0249 250.225 37.9499 249.845 37.8449C249.446 37.7325 249.034 37.6769 248.62 37.6799C247.646 37.6898 246.698 37.993 245.9 38.5499C244.957 39.2175 244.215 40.1306 243.755 41.1899C243.161 42.5138 242.872 43.9543 242.91 45.4049V58.2999C242.921 58.7359 242.845 59.1698 242.686 59.576C242.528 59.9822 242.289 60.3525 241.985 60.6649C241.359 61.2769 240.519 61.6196 239.645 61.6196C238.77 61.6196 237.93 61.2769 237.305 60.6649C237 60.3525 236.762 59.9822 236.603 59.576C236.444 59.1698 236.368 58.7359 236.38 58.2999V35.8299C236.368 35.3939 236.444 34.96 236.603 34.5538C236.762 34.1476 237 33.7774 237.305 33.4649C237.93 32.8529 238.77 32.5102 239.645 32.5102C240.519 32.5102 241.359 32.8529 241.985 33.4649C242.289 33.7774 242.528 34.1476 242.686 34.5538C242.845 34.96 242.921 35.3939 242.91 35.8299V36.5349C243.731 35.0614 244.984 33.8748 246.5 33.1349C248.051 32.3575 249.764 31.9567 251.5 31.9649C252.496 31.9358 253.469 32.2639 254.245 32.8899Z" fill="#78858B"/>
<path d="M228.375 32.89C228.684 33.2055 228.925 33.5805 229.084 33.9923C229.243 34.4041 229.316 34.8439 229.3 35.285V58.285C229.311 58.721 229.236 59.1549 229.077 59.5611C228.918 59.9673 228.679 60.3376 228.375 60.65C228.072 60.9629 227.708 61.2093 227.305 61.3738C226.902 61.5382 226.47 61.6169 226.035 61.605C225.606 61.6201 225.178 61.5456 224.78 61.3863C224.381 61.2271 224.02 60.9865 223.72 60.68C223.117 60.0489 222.778 59.2123 222.77 58.34C221.679 59.5212 220.36 60.468 218.891 61.123C217.423 61.778 215.837 62.1275 214.23 62.15C211.822 62.1772 209.458 61.505 207.425 60.215C205.365 58.8958 203.701 57.0436 202.61 54.855C201.404 52.4415 200.798 49.7726 200.845 47.075C200.8 44.3724 201.397 41.6978 202.585 39.27C203.648 37.0729 205.295 35.2101 207.345 33.885C209.329 32.6105 211.642 31.9431 214 31.965C215.679 31.9536 217.343 32.2783 218.895 32.92C220.317 33.4904 221.626 34.3099 222.76 35.34V35.285C222.747 34.8489 222.823 34.4147 222.982 34.0084C223.141 33.6021 223.38 33.2319 223.685 32.92C223.987 32.6064 224.351 32.3594 224.754 32.195C225.157 32.0305 225.59 31.9522 226.025 31.965C226.459 31.9511 226.891 32.026 227.295 32.1851C227.699 32.3441 228.067 32.584 228.375 32.89ZM220.81 53.595C222.331 51.7782 223.125 49.4628 223.04 47.095C223.123 44.7199 222.329 42.3973 220.81 40.57C220.096 39.7453 219.213 39.0838 218.221 38.6304C217.229 38.177 216.151 37.9423 215.06 37.9423C213.969 37.9423 212.891 38.177 211.899 38.6304C210.907 39.0838 210.024 39.7453 209.31 40.57C207.792 42.3985 206.999 44.7203 207.08 47.095C206.995 49.4584 207.78 51.7709 209.285 53.595C209.983 54.4327 210.863 55.1008 211.857 55.5486C212.851 55.9964 213.935 56.2123 215.025 56.18C216.122 56.2137 217.212 55.9986 218.214 55.5509C219.216 55.1032 220.103 54.4346 220.81 53.595Z" fill="#78858B"/>
<path d="M197.25 28.1601C197.232 28.9731 196.946 29.7574 196.435 30.3901C196.183 30.7467 195.849 31.0368 195.46 31.2355C195.072 31.4341 194.641 31.5352 194.205 31.5301C193.556 31.5199 192.92 31.348 192.355 31.0301C190.549 30.1921 188.58 29.7652 186.59 29.7801C184.274 29.7246 181.984 30.278 179.95 31.3851C178.09 32.4267 176.578 33.9914 175.6 35.8851C174.555 37.949 174.032 40.2373 174.075 42.5501C174.075 46.8301 175.226 50.0768 177.53 52.2901C179.833 54.5034 182.853 55.6101 186.59 55.6101C188.583 55.6568 190.559 55.2283 192.355 54.3601C192.898 54.0956 193.491 53.9458 194.095 53.9201C194.56 53.9209 195.018 54.0297 195.434 54.2379C195.849 54.4462 196.211 54.7482 196.49 55.1201C197.013 55.7458 197.301 56.5345 197.305 57.3501C197.311 57.9071 197.16 58.4546 196.87 58.9301C196.57 59.4083 196.135 59.7861 195.62 60.0151C192.819 61.424 189.725 62.1521 186.59 62.1401C183.191 62.1757 179.834 61.401 176.795 59.8801C173.831 58.3864 171.358 56.0731 169.67 53.2151C167.89 50.2918 167 46.7451 167 42.5751C166.943 39.0909 167.816 35.6545 169.53 32.6201C171.178 29.7196 173.602 27.3356 176.53 25.7351C179.616 24.0573 183.083 23.2048 186.595 23.2601C189.714 23.2355 192.793 23.9645 195.57 25.3851C196.094 25.6286 196.533 26.0226 196.832 26.5168C197.131 27.011 197.277 27.583 197.25 28.1601Z" fill="#78858B"/>
<path d="M160.365 33.465C160.669 33.7774 160.908 34.1477 161.067 34.5539C161.226 34.9601 161.301 35.394 161.29 35.83V58.955C161.29 63.665 160.02 67.1016 157.48 69.265C154.94 71.4283 151.55 72.5066 147.31 72.5C146.042 72.4974 144.777 72.3971 143.525 72.2C142.456 72.0581 141.408 71.793 140.4 71.41C138.62 70.65 137.73 69.5983 137.73 68.255C137.738 67.958 137.793 67.6642 137.895 67.385C138.057 66.6727 138.449 66.0334 139.01 65.565C139.491 65.1624 140.098 64.9412 140.725 64.94C141.076 64.937 141.426 64.991 141.76 65.1C142.01 65.21 142.455 65.39 143.09 65.645C143.74 65.9039 144.408 66.1129 145.09 66.27C145.813 66.4362 146.553 66.5184 147.295 66.515C149.865 66.515 151.76 65.9616 152.98 64.855C154.2 63.7483 154.807 61.8533 154.8 59.17V58.625C152.933 60.985 150 62.165 146 62.165C144.241 62.1979 142.508 61.7353 141 60.83C139.549 59.9401 138.381 58.6571 137.63 57.13C136.806 55.4458 136.394 53.5896 136.43 51.715V35.83C136.418 35.394 136.494 34.9601 136.653 34.5539C136.812 34.1477 137.051 33.7774 137.355 33.465C137.98 32.853 138.82 32.5103 139.695 32.5103C140.57 32.5103 141.41 32.853 142.035 33.465C142.339 33.7774 142.578 34.1477 142.737 34.5539C142.896 34.9601 142.971 35.394 142.96 35.83V49.76C142.96 52.0466 143.46 53.6866 144.46 54.68C145.46 55.68 146.915 56.18 148.84 56.18C150.765 56.18 152.185 55.625 153.22 54.52C154.255 53.415 154.77 51.825 154.77 49.76V35.83C154.758 35.394 154.834 34.9601 154.993 34.5539C155.152 34.1477 155.391 33.7774 155.695 33.465C156.32 32.853 157.16 32.5103 158.035 32.5103C158.91 32.5103 159.75 32.853 160.375 33.465H160.365Z" fill="#DE1B1B"/>
<path d="M127.805 24.43C128.13 24.7316 128.387 25.0989 128.559 25.5075C128.732 25.9161 128.815 26.3566 128.805 26.8V58.3C128.819 58.7445 128.741 59.1872 128.576 59.6002C128.41 60.0131 128.161 60.3874 127.844 60.6993C127.527 61.0112 127.149 61.2541 126.733 61.4125C126.318 61.571 125.874 61.6416 125.43 61.62C124.972 61.6416 124.515 61.5708 124.085 61.4119C123.656 61.2529 123.263 61.0091 122.93 60.695C122.614 60.3836 122.366 60.0098 122.202 59.5975C122.039 59.1851 121.963 58.7433 121.98 58.3V36.375L112.98 50.085C112.63 50.5106 112.207 50.8697 111.73 51.145C111.287 51.4092 110.774 51.533 110.26 51.5C109.763 51.5274 109.269 51.4037 108.845 51.145C108.368 50.8683 107.945 50.5094 107.595 50.085L98.6196 35.885V58.3C98.6553 59.1816 98.3428 60.0418 97.7496 60.695C97.4559 61.0022 97.1004 61.2435 96.7065 61.403C96.3125 61.5625 95.8892 61.6364 95.4646 61.62C95.0458 61.6326 94.6293 61.5537 94.2441 61.3887C93.859 61.2238 93.5144 60.9768 93.2346 60.665C92.646 60.0207 92.3321 59.1722 92.3596 58.3V26.8C92.3531 26.3616 92.4388 25.9269 92.611 25.5238C92.7833 25.1207 93.0383 24.7582 93.3596 24.46C93.6744 24.1384 94.0512 23.884 94.4672 23.7121C94.8831 23.5402 95.3296 23.4545 95.7796 23.46C96.3478 23.4646 96.9068 23.6052 97.4096 23.87C97.9144 24.1059 98.3475 24.4717 98.6646 24.93L110.525 43.155L122.77 24.95C123.068 24.5068 123.469 24.1429 123.94 23.89C124.395 23.6238 124.912 23.4824 125.44 23.48C126.323 23.471 127.173 23.8127 127.805 24.43Z" fill="#DE1B1B"/>
<path d="M62.7997 46.55C62.2289 46.5486 61.6691 46.3922 61.1803 46.0974C60.6915 45.8026 60.292 45.3806 60.0245 44.8763C59.757 44.3721 59.6315 43.8046 59.6615 43.2346C59.6914 42.6646 59.8757 42.1134 60.1947 41.64C63.8601 36.1968 65.734 29.7447 65.5548 23.1848C65.3755 16.625 63.1519 10.2849 59.1947 5.04998C58.7604 4.38336 58.5945 3.57711 58.7303 2.79319C58.866 2.00928 59.2934 1.30576 59.9265 0.823969C60.5596 0.342174 61.3516 0.117788 62.1433 0.195885C62.935 0.273982 63.6679 0.648776 64.1947 1.24498C68.9489 7.52673 71.6205 15.1375 71.8356 23.0126C72.0508 30.8877 69.7988 38.633 65.3947 45.165C65.1081 45.5902 64.7217 45.9387 64.2694 46.1801C63.817 46.4216 63.3124 46.5485 62.7997 46.55Z" fill="#DE1B1B"/>
<path d="M53.1999 36.6851C52.6644 36.6839 52.138 36.5463 51.6704 36.2851C51.2029 36.0239 50.8097 35.6478 50.5279 35.1924C50.2462 34.737 50.0852 34.2172 50.0601 33.6823C50.0351 33.1473 50.1469 32.6148 50.3849 32.1351C51.7751 29.3409 52.4238 26.2364 52.2688 23.1194C52.1138 20.0024 51.1604 16.9776 49.4999 14.3351C49.2786 13.9861 49.1283 13.5969 49.0574 13.1898C48.9865 12.7827 48.9965 12.3657 49.0868 11.9624C49.2692 11.148 49.7676 10.4395 50.4724 9.99259C50.8214 9.77131 51.2106 9.62094 51.6177 9.55006C52.0248 9.47917 52.4418 9.48917 52.8451 9.57948C53.6595 9.76186 54.368 10.2603 54.8149 10.9651C57.0528 14.5239 58.3372 18.5987 58.5448 22.7975C58.7523 26.9963 57.8759 31.1779 55.9999 34.9401C55.7406 35.4617 55.3415 35.9011 54.8471 36.2092C54.3527 36.5173 53.7825 36.6821 53.1999 36.6851Z" fill="#DE1B1B"/>
<path d="M9.0898 46.55C8.57806 46.5469 8.07478 46.4191 7.6235 46.1778C7.17222 45.9365 6.78654 45.5889 6.4998 45.165C2.09427 38.6345 -0.160334 30.8906 0.0512353 23.0159C0.262805 15.1412 2.92997 7.52946 7.6798 1.24498C8.20658 0.648776 8.93944 0.273982 9.73118 0.195885C10.5229 0.117788 11.3149 0.342174 11.948 0.823969C12.5811 1.30576 13.0085 2.00928 13.1442 2.79319C13.28 3.57711 13.114 4.38336 12.6798 5.04998C8.72254 10.2849 6.499 16.625 6.31972 23.1848C6.14044 29.7447 8.01437 36.1968 11.6798 41.64C11.9987 42.1134 12.183 42.6646 12.213 43.2346C12.243 43.8046 12.1175 44.3721 11.85 44.8763C11.5825 45.3806 11.1829 45.8026 10.6941 46.0974C10.2053 46.3922 9.64562 46.5486 9.0748 46.55H9.0898Z" fill="#DE1B1B"/>
<path d="M18.6847 36.685C18.0989 36.6852 17.5247 36.5219 17.0265 36.2137C16.5284 35.9054 16.126 35.4643 15.8647 34.94C13.9987 31.1732 13.1318 26.99 13.3472 22.7918C13.5626 18.5936 14.853 14.5212 17.0947 10.965C17.3101 10.6032 17.5957 10.2883 17.9349 10.0387C18.274 9.78923 18.6597 9.61024 19.0692 9.51235C19.4787 9.41446 19.9037 9.39965 20.319 9.46881C20.7344 9.53797 21.1316 9.68969 21.4873 9.915C21.843 10.1403 22.1499 10.4346 22.3898 10.7806C22.6298 11.1265 22.798 11.5171 22.8845 11.9291C22.9709 12.3412 22.9739 12.7664 22.8932 13.1797C22.8126 13.5929 22.6499 13.9858 22.4147 14.335C20.7514 16.9756 19.7938 19.9989 19.6336 23.1156C19.4734 26.2322 20.1159 29.3378 21.4997 32.135C21.6842 32.505 21.794 32.9077 21.8227 33.32C21.8514 33.7324 21.7985 34.1464 21.6671 34.5384C21.5357 34.9303 21.3283 35.2925 21.0568 35.6042C20.7853 35.916 20.4549 36.1711 20.0847 36.355C19.6503 36.5729 19.1708 36.6859 18.6847 36.685Z" fill="#DE1B1B"/>
<path d="M62.45 75.625L42.7 29.025C43.624 27.7753 44.1831 26.2937 44.3148 24.7451C44.4465 23.1964 44.1457 21.6416 43.4459 20.2539C42.7461 18.8661 41.6748 17.6998 40.3514 16.885C39.0279 16.0701 37.5042 15.6387 35.95 15.6387C34.3958 15.6387 32.872 16.0701 31.5486 16.885C30.2251 17.6998 29.1538 18.8661 28.454 20.2539C27.7542 21.6416 27.4535 23.1964 27.5852 24.7451C27.7169 26.2937 28.2759 27.7753 29.2 29.025L9.44997 75.625C9.12442 76.3935 9.11747 77.2598 9.43065 78.0334C9.74384 78.807 10.3515 79.4245 11.12 79.75C11.8884 80.0756 12.7548 80.0825 13.5283 79.7693C14.3019 79.4561 14.9194 78.8485 15.245 78.08L17.31 73.21C22.485 69.915 29.095 68.11 36.13 68.11C42.895 68.11 49.365 69.81 54.475 72.915L56.66 78.08C56.9986 78.8293 57.6169 79.4165 58.3826 79.7162C59.1484 80.0158 60.001 80.0041 60.7583 79.6836C61.5155 79.363 62.1174 78.7591 62.4354 78.0007C62.7534 77.2424 62.7622 76.3898 62.46 75.625H62.45ZM35.95 32.44C36.392 32.4382 36.8332 32.4031 37.27 32.335L45.425 51.58C39.1557 50.2781 32.6831 50.3054 26.425 51.66L34.625 32.335C35.0617 32.4031 35.503 32.4382 35.945 32.44H35.95ZM36.125 61.815C30.9797 61.7941 25.8706 62.6758 21.03 64.42L23.285 59.105C31.4551 56.2423 40.3475 56.1913 48.55 58.96L50.805 64.275C46.0838 62.6323 41.1187 61.8005 36.12 61.815H36.125Z" fill="#78858B"/>
</g>
<defs>
<clipPath id="clip0">
<path d="M0 0H347V80H0V0Z" fill="white"/>
</clipPath>
</defs>
</svg>
