<svg width="314" height="40" viewBox="0 0 314 40" fill="none" xmlns="http://www.w3.org/2000/svg">
<path d="M307.29 0V17.611H288.821V0H282.484V39.9988H288.821V23.3016H307.29V39.9988H313.625V0H307.29Z" fill="#0D3B40"/>
<path d="M234.27 5.63738H244.847V39.9988H251.182V5.63738H261.651V0H234.27V5.63738Z" fill="#0D3B40"/>
<path d="M189.496 39.9988H215.803V34.3614H195.831V22.7644H214.73V17.127H195.831V5.63738H215.803V0H189.496V39.9988Z" fill="#0D3B40"/>
<path d="M146.754 0L132.688 39.9988H139.452L142.567 31.0321H158.834L161.841 39.9988H168.66L154.592 0H146.753H146.754ZM144.392 25.3959L150.694 7.0541L156.902 25.3959H144.392Z" fill="#0D3B40"/>
<path d="M111.135 19.624C112.513 17.6736 113.203 15.3018 113.203 12.5097C113.203 9.89699 112.62 7.65031 111.458 5.77197C110.294 3.89245 108.693 2.46156 106.653 1.47693C104.612 0.493492 102.25 0 99.5654 0H85.0156V39.9988H91.3507V24.965H99.1545L107.619 39.9988H114.814L105.579 23.8919C107.905 22.9981 109.758 21.5755 111.136 19.624H111.135ZM103.431 18.4693C102.356 19.0419 101.104 19.3288 99.6728 19.3288H91.3507V5.63738H99.6728C101.104 5.63738 102.358 5.92426 103.431 6.49686C104.504 7.06945 105.344 7.86636 105.954 8.8864C106.562 9.90644 106.866 11.1142 106.866 12.5108C106.866 13.9075 106.562 15.0609 105.954 16.081C105.344 17.101 104.504 17.8979 103.431 18.4705V18.4693Z" fill="#0D3B40"/>
<path d="M60.6398 0H54.3047V39.9988H60.6398V0Z" fill="#0D3B40"/>
<path d="M31.5075 0H25.0496V18.2167L15.9412 13.6171L6.8329 18.2167V0H0.375V40H6.8329V30.5481C6.8329 25.5175 10.9107 21.4397 15.9412 21.4397C20.9718 21.4397 25.0496 25.5175 25.0496 30.5481V40H31.5075V0Z" fill="#0D3B40"/>
</svg>
